<?xml version="1.0" encoding="UTF-8" standalone="no"?>
<!-- Created with Inkscape (http://www.inkscape.org/) -->

<svg
   width="210mm"
   height="297mm"
   viewBox="0 0 210 297"
   version="1.1"
   id="svg1"
   xml:space="preserve"
   inkscape:export-filename="Logo-fondo.svg"
   inkscape:export-xdpi="96"
   inkscape:export-ydpi="96"
   xmlns:inkscape="http://www.inkscape.org/namespaces/inkscape"
   xmlns:sodipodi="http://sodipodi.sourceforge.net/DTD/sodipodi-0.dtd"
   xmlns="http://www.w3.org/2000/svg"
   xmlns:svg="http://www.w3.org/2000/svg"><sodipodi:namedview
     id="namedview1"
     pagecolor="#ffffff"
     bordercolor="#000000"
     borderopacity="0.25"
     inkscape:showpageshadow="2"
     inkscape:pageopacity="0.0"
     inkscape:pagecheckerboard="0"
     inkscape:deskcolor="#d1d1d1"
     inkscape:document-units="mm"><inkscape:page
       x="0"
       y="0"
       width="210"
       height="297"
       id="page2"
       margin="0"
       bleed="0" /></sodipodi:namedview><defs
     id="defs1" /><g
     inkscape:label="Capa 1"
     inkscape:groupmode="layer"
     id="layer1"><path
       style="fill:#e8e8e8;fill-opacity:1;stroke-width:0.733217"
       d="m 102.08117,168.90378 c -0.81358,-0.21128 -4.306575,-0.26267 -18.72359,-0.2754 -14.272293,-0.0126 -17.793183,-0.0637 -18.081669,-0.26203 -0.50853,-0.34973 -0.474883,-0.54578 2.264451,-13.19388 1.322256,-6.10515 2.960943,-13.68249 3.641528,-16.83855 0.680584,-3.15605 1.328712,-5.8441 1.440287,-5.97345 0.111574,-0.12934 0.34986,-0.23517 0.529524,-0.23517 0.198182,0 0.642485,-0.53579 1.129647,-1.36226 l 0.802986,-1.36225 2.196446,-0.0329 c 2.394256,-0.0359 4.028264,-0.18902 9.797776,-0.91816 5.117082,-0.64669 10.2509,-0.80834 12.392951,-0.39022 2.047403,0.39963 3.451103,1.01163 4.595053,2.00338 l 0.91513,0.79338 0.88027,-0.76316 c 1.84319,-1.59796 3.59012,-2.11122 7.62121,-2.23915 3.12827,-0.0993 4.78587,0.0311 12.50219,0.98322 2.14538,0.26472 5.01045,0.50145 6.36683,0.52606 2.78676,0.0506 2.74041,0.0269 3.65806,1.86842 0.27577,0.55342 0.57529,0.89367 0.7867,0.89367 0.18775,0 0.43358,0.10583 0.54626,0.23517 0.11267,0.12935 0.53506,1.75911 0.93863,3.6217 4.65288,21.47443 6.56507,30.44244 6.65557,31.21419 0.088,0.75074 0.0404,0.97027 -0.25411,1.17285 -0.29415,0.20231 -3.64286,0.24998 -17.78162,0.25315 -14.87985,0.003 -17.56236,0.0449 -18.40117,0.28523 -1.24544,0.35682 -5.03935,0.35456 -6.41934,-0.004 z m 1.35024,-0.40389 c -0.13752,-0.0522 -0.36255,-0.0522 -0.50008,0 -0.13752,0.0522 -0.025,0.0949 0.25005,0.0949 0.27504,0 0.38756,-0.0427 0.25003,-0.0949 z m 4.29659,0.011 c -0.0664,-0.0625 -0.239,-0.0692 -0.3834,-0.0149 -0.15957,0.0601 -0.11217,0.10465 0.12085,0.11368 0.21088,0.008 0.32902,-0.0363 0.26255,-0.0988 z m 3.75483,-0.52649 c 0.22003,-0.0336 -0.25255,-0.0726 -1.05019,-0.0868 -0.79764,-0.0141 -1.45031,0.0379 -1.45038,0.11548 -1.1e-4,0.13059 1.57686,0.11249 2.50057,-0.0287 z m -41.357241,-0.0641 c -0.852649,-0.0353 -2.247894,-0.0353 -3.100542,0 -0.85265,0.0353 -0.155028,0.0641 1.550271,0.0641 1.705298,0 2.40292,-0.0289 1.550271,-0.0641 z m 31.252401,-0.1894 c -0.002,-0.23351 -0.049,-0.26122 -0.16101,-0.0953 -0.12305,0.18225 -3.382296,0.24488 -14.74952,0.28346 l -14.591565,0.0495 14.752581,0.0458 c 13.936274,0.0432 14.752424,0.0276 14.749514,-0.28345 z m 5.15396,0.1902 c -0.6326,-0.0373 -1.66778,-0.0373 -2.3004,0 -0.6326,0.0373 -0.11501,0.0679 1.1502,0.0679 1.26523,0 1.78281,-0.0306 1.1502,-0.0679 z m 15.48991,-0.002 c -1.90487,-0.0309 -4.9654,-0.0309 -6.80118,1.3e-4 -1.83579,0.031 -0.27725,0.0563 3.4634,0.0562 3.74066,-6e-5 5.24266,-0.0254 3.33778,-0.0564 z m 17.71591,-8e-5 c -2.61296,-0.0297 -6.8887,-0.0297 -9.50167,0 -2.61295,0.0297 -0.47509,0.054 4.75083,0.054 5.22592,0 7.3638,-0.0243 4.75084,-0.054 z m -37.01065,-0.16087 c -0.0664,-0.0625 -0.239,-0.0692 -0.38339,-0.0149 -0.15958,0.0601 -0.11218,0.10464 0.12085,0.11367 0.21087,0.008 0.32902,-0.0363 0.26254,-0.0988 z m -37.215716,-0.67417 c -0.06385,-0.15008 -0.111256,-0.1055 -0.120854,0.11366 -0.0087,0.19834 0.0386,0.30947 0.105062,0.24694 0.06647,-0.0625 0.07358,-0.22478 0.01579,-0.3606 z m 26.733089,0.27051 c -4.750064,-0.0281 -12.581434,-0.0281 -17.403045,-1e-5 -4.821612,0.0281 -0.935198,0.0511 8.636478,0.0511 9.571674,1e-5 13.516631,-0.023 8.766567,-0.0511 z m 13.887397,0.004 c -0.41258,-0.0406 -1.0877,-0.0406 -1.50026,0 -0.41258,0.0406 -0.075,0.0738 0.75012,0.0738 0.82514,0 1.16271,-0.0332 0.75014,-0.0738 z m 29.2051,-0.004 c -4.70332,-0.0281 -12.39966,-0.0281 -17.10298,0 -4.70334,0.0281 -0.85516,0.0511 8.5515,0.0511 9.40664,0 13.25481,-0.0231 8.55148,-0.0511 z m -33.35583,-0.63345 c 0,-0.19489 0.11252,-0.35564 0.25005,-0.35721 0.16618,-0.002 0.1494,-0.0631 -0.05,-0.1824 -0.24426,-0.14615 -0.25475,-0.24829 -0.0563,-0.54934 0.23626,-0.35863 0.22655,-0.36058 -0.32158,-0.0647 -0.38362,0.20708 -0.53472,0.41471 -0.47034,0.64629 0.0522,0.18766 0.003,0.34118 -0.10977,0.34118 -0.11256,0 -0.1603,0.15949 -0.1061,0.35443 0.12884,0.46335 0.86417,0.30318 0.86417,-0.18823 z m 7.2624,-0.38873 c -0.0565,-0.27761 -0.21814,-0.54643 -0.35931,-0.59737 -0.17186,-0.062 -0.22338,0.027 -0.15595,0.26956 0.0553,0.19921 0.008,0.3622 -0.10495,0.3622 -0.29323,0 -0.16698,0.56307 0.1702,0.75907 0.37506,0.21802 0.58165,-0.14623 0.45001,-0.79346 z m -2.63659,0.46903 c 0.65174,-0.1253 0.6578,-0.13441 0.17503,-0.26347 -0.68608,-0.18338 -2.40806,-0.2005 -3.22557,-0.0321 l -0.67512,0.13908 0.90017,0.11486 c 1.36272,0.17389 2.08221,0.18449 2.82549,0.0416 z m 37.78161,-0.16353 c 0,-0.16132 -0.0915,-0.24013 -0.2033,-0.17513 -0.11181,0.065 -0.15151,0.19697 -0.0882,0.2933 0.17149,0.26096 0.29152,0.2123 0.29152,-0.11817 z m -78.3137,-0.083 c -0.068,-0.10347 -0.208332,-0.18814 -0.311858,-0.18814 -0.103526,0 -0.188229,0.0846 -0.188229,0.18814 0,0.10348 0.140335,0.18814 0.311858,0.18814 0.171521,0 0.256225,-0.0846 0.188229,-0.18814 z m 26.369612,-0.32918 c -4.640065,-0.0282 -12.291403,-0.0282 -17.002976,-2e-5 -4.711573,0.0282 -0.915156,0.0511 8.436479,0.0511 9.351638,1e-5 13.20656,-0.023 8.566497,-0.0511 z m 21.684638,0.0274 c -0.0664,-0.0625 -0.23902,-0.0692 -0.38341,-0.0149 -0.15958,0.0601 -0.11218,0.10463 0.12085,0.11366 0.21087,0.008 0.32903,-0.0363 0.26256,-0.0988 z m 2.20037,0 c -0.0664,-0.0625 -0.23899,-0.0692 -0.3834,-0.0149 -0.15957,0.0601 -0.11218,0.10463 0.12086,0.11366 0.21087,0.008 0.32901,-0.0363 0.26254,-0.0988 z m 4.11219,-0.0248 c -0.57359,-0.0379 -1.56376,-0.0383 -2.20039,-6.4e-4 -0.63662,0.0375 -0.16733,0.0684 1.04289,0.0688 1.21021,4.2e-4 1.73109,-0.0302 1.1575,-0.0681 z m 4.40078,0 c -0.57359,-0.0379 -1.56377,-0.0383 -2.20039,-6.4e-4 -0.63663,0.0375 -0.16733,0.0684 1.04287,0.0688 1.21022,4.2e-4 1.73109,-0.0302 1.15752,-0.0681 z m 14.10862,-0.002 c -2.27549,-0.0301 -6.05615,-0.0302 -8.40147,-9e-5 -2.34531,0.0301 -0.48355,0.0549 4.13726,0.0549 4.62081,3e-5 6.53971,-0.0246 4.26421,-0.0548 z m -73.039616,-0.6472 c -0.06385,-0.15008 -0.111256,-0.10551 -0.120855,0.11366 -0.0087,0.19833 0.0386,0.30946 0.105063,0.24694 0.06647,-0.0625 0.07358,-0.22479 0.01579,-0.3606 z m 38.015856,0.29789 c -0.0664,-0.0625 -0.23899,-0.0692 -0.38339,-0.0149 -0.15958,0.0601 -0.11218,0.10463 0.12085,0.11366 0.21087,0.008 0.32902,-0.0363 0.26254,-0.0988 z m -36.552222,-0.37468 c 0,-0.16511 0.174828,-0.53113 0.388506,-0.81336 l 0.388506,-0.51317 -0.438515,0.0138 c -0.446371,0.014 -0.681594,0.40342 -0.718628,1.18965 -0.01097,0.23282 0.07008,0.42331 0.180095,0.42331 0.11002,0 0.200036,-0.13508 0.200036,-0.3002 z m 75.589562,-0.12312 c -0.0312,-0.55686 -0.32229,-1.62581 -0.35274,-1.29503 -0.0148,0.16127 -0.17295,0.2204 -0.42409,0.15864 l -0.40042,-0.0985 0.40042,0.52891 c 0.22023,0.29089 0.40043,0.66399 0.40043,0.8291 0,0.16512 0.09,0.30021 0.20002,0.30021 0.11003,0 0.18939,-0.19049 0.17638,-0.42333 z m -67.004727,-0.44916 c 0.04584,-0.0376 -1.214379,-0.081 -2.800489,-0.0965 -3.602933,-0.0353 -2.267897,-0.24662 2.012316,-0.31853 1.702711,-0.0286 3.135463,-0.0893 3.18389,-0.13481 0.04844,-0.0456 -1.614746,-0.0986 -3.695944,-0.11787 l -3.783996,-0.0351 4.200735,-0.12673 c 5.345448,-0.16125 24.415195,-0.17344 25.187915,-0.0161 0.62305,0.12687 0.96299,0.58918 0.43324,0.58918 -0.1742,0 -0.31673,0.12699 -0.31673,0.28222 0,0.43026 0.84329,0.3446 1.8299,-0.18588 0.47882,-0.25744 1.0438,-0.46911 1.25551,-0.47035 0.35454,-0.002 0.34664,-0.0409 -0.10002,-0.49124 -0.65982,-0.66531 -2.1182,-1.3366 -3.954731,-1.82037 -2.367735,-0.62369 -9.40032,-0.57615 -16.033631,0.10839 -7.170254,0.73996 -9.048663,0.88364 -11.554506,0.88381 l -2.252879,1.6e-4 -0.697638,1.02574 c -0.3837,0.56415 -0.697637,1.0679 -0.697637,1.11944 0,0.10449 7.653,-0.0878 7.784695,-0.19556 z m 23.820834,-1.68012 c -2.784462,-0.64114 -6.992545,-0.75562 -13.802413,-0.37552 -1.028244,0.0574 -1.248519,0.0387 -0.700122,-0.0594 l 0.800139,-0.14314 -0.800139,-0.0809 c -0.616739,-0.0623 -0.318713,-0.13755 1.300226,-0.32806 3.234152,-0.38061 8.028422,-0.49424 10.301803,-0.24419 2.550212,0.28051 5.100889,0.91284 5.100889,1.26453 0,0.32235 -0.70185,0.31171 -2.200383,-0.0334 z M 87.528634,162.474 c -0.192532,-0.0474 -0.507588,-0.0474 -0.700122,0 -0.192533,0.0473 -0.03501,0.086 0.350061,0.086 0.385068,0 0.542596,-0.0388 0.350061,-0.086 z m 2.600456,-0.18815 c -0.192534,-0.0473 -0.507589,-0.0473 -0.700122,0 -0.192535,0.0473 -0.03501,0.086 0.350061,0.086 0.385067,0 0.542594,-0.0388 0.350061,-0.086 z m 5.996883,0.016 c -0.06647,-0.0625 -0.239001,-0.0692 -0.383401,-0.0148 -0.159575,0.0601 -0.112174,0.10462 0.120855,0.11365 0.21087,0.008 0.329016,-0.0363 0.262546,-0.0988 z m 13.856597,2.65356 c 0,-0.15521 -0.09,-0.28221 -0.20005,-0.28221 -0.11001,0 -0.20002,-0.11591 -0.20002,-0.2576 0,-0.15149 0.30893,-0.30562 0.75012,-0.3742 0.97906,-0.15221 19.0865,-0.11053 24.75433,0.0569 l 4.40078,0.13006 -4.18407,0.0343 c -2.30124,0.0189 -4.14408,0.0719 -4.0952,0.11782 0.0489,0.046 1.66166,0.10618 3.58396,0.13381 4.92811,0.0708 6.04452,0.27731 1.89481,0.35045 l -3.40059,0.0599 4.20073,0.12941 c 2.31041,0.0712 4.23077,0.10626 4.2675,0.078 0.0367,-0.0283 -0.25471,-0.52408 -0.64763,-1.10179 l -0.71439,-1.05036 -2.3529,-5.7e-4 c -2.35687,-5.5e-4 -5.05307,-0.20938 -12.15461,-0.94146 -7.5305,-0.77627 -13.06553,-0.70824 -16.18851,0.19899 -1.30126,0.37801 -3.2141,1.44631 -3.16516,1.7677 0.0149,0.0979 0.38154,0.27648 0.81475,0.39679 0.4332,0.12031 0.99854,0.35766 1.25631,0.52748 0.59221,0.39014 1.37984,0.40528 1.37984,0.0266 z m -1.60029,-1.64369 c 0,-0.35628 1.60359,-0.79132 4.41201,-1.19693 2.37682,-0.34328 7.5552,-0.27688 11.19072,0.14349 1.76938,0.2046 1.97427,0.26043 1.30023,0.35435 l -0.80014,0.11146 0.70012,0.10124 c 0.38507,0.0557 -0.33506,0.0498 -1.60028,-0.0132 -4.38526,-0.21812 -9.76803,-0.10541 -11.80206,0.24712 -3.1951,0.55377 -3.4006,0.56902 -3.4006,0.25245 z m 15.25647,-0.83147 c -0.13542,-0.0516 -0.40548,-0.0547 -0.60011,-0.007 -0.19462,0.0477 -0.0838,0.0899 0.24625,0.0937 0.33006,0.003 0.4893,-0.0352 0.35386,-0.0867 z m -8.90953,-0.1784 c -0.0664,-0.0625 -0.239,-0.0692 -0.38339,-0.0148 -0.15958,0.0601 -0.11218,0.10462 0.12085,0.11365 0.21087,0.008 0.32901,-0.0363 0.26254,-0.0988 z m 6.20526,-0.016 c -0.19255,-0.0473 -0.5076,-0.0473 -0.70013,0 -0.19252,0.0473 -0.035,0.086 0.35006,0.086 0.38507,0 0.5426,-0.0388 0.35007,-0.086 z m -16.80711,2.46185 c -0.0664,-0.0625 -0.23899,-0.0692 -0.3834,-0.0148 -0.15958,0.0601 -0.11217,0.10464 0.12085,0.11366 0.21088,0.008 0.32902,-0.0363 0.26255,-0.0988 z m -16.909875,-0.21502 c -1.243814,-0.0331 -3.22416,-0.0329 -4.40077,2.6e-4 -1.176609,0.0332 -0.158943,0.0602 2.261481,0.0601 2.420424,-1.5e-4 3.383104,-0.0273 2.139289,-0.0604 z m 4.611893,0.008 c -0.247544,-0.0449 -0.652615,-0.0449 -0.900158,0 -0.247544,0.0449 -0.04501,0.0816 0.450078,0.0816 0.495087,0 0.697623,-0.0367 0.45008,-0.0816 z m 3.200559,-0.003 c -0.357563,-0.0417 -0.942664,-0.0417 -1.300226,0 -0.357564,0.0417 -0.06501,0.0759 0.650113,0.0759 0.715125,0 1.007676,-0.0342 0.650113,-0.0759 z m 2.100368,0.006 c -0.192533,-0.0473 -0.507588,-0.0473 -0.700123,0 -0.192533,0.0473 -0.03501,0.086 0.350062,0.086 0.385067,0 0.542595,-0.0387 0.350061,-0.086 z m 1.30023,0.005 c -0.137526,-0.0522 -0.362566,-0.0522 -0.500089,0 -0.137525,0.0522 -0.025,0.0949 0.250043,0.0949 0.275046,0 0.387569,-0.0427 0.250046,-0.0949 z m 7.040545,-0.0798 c -0.0738,-0.11241 0.16836,-0.51438 0.5383,-0.89326 0.59413,-0.60853 0.60258,-0.63027 0.0725,-0.18645 -0.69813,0.5845 -1.48037,0.54978 -2.3004,-0.10211 -0.30017,-0.23862 -0.2402,-0.13144 0.15003,0.26812 0.35756,0.36611 0.6501,0.76746 0.6501,0.89188 0,0.12443 0.23036,0.22622 0.5119,0.22622 0.31746,0 0.46087,-0.0776 0.37758,-0.2044 z m 7.16574,0.081 c -0.13543,-0.0516 -0.40548,-0.0547 -0.6001,-0.007 -0.19463,0.0477 -0.0838,0.0899 0.24622,0.0937 0.33007,0.004 0.48931,-0.0352 0.35388,-0.0867 z m 1.89235,0.01 c -0.0664,-0.0625 -0.23899,-0.0692 -0.38339,-0.0148 -0.15957,0.0601 -0.11218,0.10463 0.12086,0.11366 0.21086,0.008 0.329,-0.0363 0.26253,-0.0988 z m 3.60714,-0.0156 c -0.19125,-0.0471 -0.55131,-0.0488 -0.80014,-0.003 -0.24882,0.045 -0.0923,0.0836 0.34773,0.0856 0.44008,0.002 0.64366,-0.0347 0.45241,-0.0818 z m 9.01071,-0.0112 c -1.28641,-0.0327 -3.4468,-0.0328 -4.80084,-2.4e-4 -1.35405,0.0326 -0.30151,0.0594 2.33894,0.0595 2.64046,1.3e-4 3.74832,-0.0265 2.4619,-0.0592 z m -47.319744,-0.17234 c -0.137523,-0.0522 -0.362562,-0.0522 -0.500087,0 -0.137523,0.0522 -0.025,0.0949 0.250044,0.0949 0.275048,0 0.387568,-0.0427 0.250043,-0.0949 z m 30.501164,0.011 c -0.0664,-0.0625 -0.23899,-0.0692 -0.38339,-0.0148 -0.15958,0.0601 -0.11219,0.10464 0.12085,0.11367 0.21086,0.008 0.32902,-0.0363 0.26254,-0.0988 z m -6.03659,-32.16547 c -0.3104,-1.21086 -2.90984,-2.70984 -5.380716,-3.10282 -2.154905,-0.34274 -7.258019,-0.10815 -12.432692,0.57151 -2.420425,0.31791 -5.769304,0.63092 -7.441955,0.69557 l -3.041184,0.11755 -0.107411,0.48936 c -0.05908,0.26915 -1.372411,7.13529 -2.918524,15.25809 -1.546113,8.12281 -2.865432,14.97229 -2.931822,15.22107 l -0.120707,0.45234 3.279926,-0.11048 c 1.803959,-0.0608 5.395295,-0.32557 7.980748,-0.58847 2.585452,-0.2629 5.861596,-0.56477 7.280318,-0.67084 7.173364,-0.53625 12.252259,0.0693 14.882979,1.77445 l 0.94075,0.60976 0.0551,-15.16386 c 0.0303,-8.34012 0.0101,-15.33907 -0.0447,-15.55323 z m 3.727,29.38134 c 2.04922,-0.85237 3.92294,-1.11826 8.16478,-1.15865 4.14631,-0.0395 5.26096,0.0298 12.5022,0.77657 5.96182,0.61485 11.30197,0.81884 11.30197,0.43174 0,-0.23152 -1.92086,-10.3846 -2.91381,-15.40146 -0.17409,-0.87956 -0.92201,-4.77406 -1.66207,-8.65445 l -1.34556,-7.05526 -2.79028,-0.11924 c -2.61985,-0.11196 -4.88332,-0.34359 -9.89153,-1.01225 -3.0882,-0.41231 -8.60555,-0.5706 -10.30467,-0.29564 -2.27844,0.36871 -4.2652,1.38316 -5.14672,2.62794 -0.3245,0.45821 -0.34884,1.56243 -0.35006,15.88248 l -0.002,15.39005 0.66039,-0.47376 c 0.36322,-0.26056 1.16271,-0.68269 1.77668,-0.93807 z m -38.029617,-6.0703 c 0.670171,-3.50093 1.254569,-6.66165 1.298665,-7.02382 0.111813,-0.91837 -1.446058,6.22505 -3.036257,13.92238 l -0.09717,0.47035 0.308135,-0.50179 c 0.169475,-0.27599 0.856457,-3.36619 1.526627,-6.86712 z m 70.906807,3.13396 c -0.4744,-2.22377 -0.87162,-3.91623 -0.88273,-3.76102 -0.0259,0.36215 1.3006,7.13384 1.485,7.58076 0.34029,0.82474 0.20361,-0.0422 -0.60227,-3.81974 z m 1.56121,3.85055 c -0.0652,-0.15968 -0.16136,-0.24997 -0.2138,-0.20066 -0.0524,0.0493 -0.036,0.17996 0.0365,0.29033 0.19724,0.30017 0.31252,0.24185 0.17726,-0.0897 z m -72.990327,-0.0728 c 0.06329,-0.0963 0.03303,-0.22284 -0.06725,-0.28114 -0.100285,-0.0583 -0.233952,0.0206 -0.297038,0.17516 -0.124361,0.3048 0.176184,0.39224 0.36429,0.10598 z m 2.058901,0.0454 c -0.192534,-0.0473 -0.507589,-0.0473 -0.700123,0 -0.192532,0.0473 -0.03501,0.086 0.350061,0.086 0.385068,0 0.542595,-0.0388 0.350062,-0.086 z m 67.515616,0.006 c -0.13543,-0.0516 -0.40547,-0.0547 -0.6001,-0.007 -0.19463,0.0477 -0.0838,0.0899 0.24623,0.0937 0.33006,0.003 0.4893,-0.0352 0.35387,-0.0867 z m 0.89219,0.01 c -0.0664,-0.0625 -0.239,-0.0692 -0.38341,-0.0148 -0.15958,0.0601 -0.11217,0.10463 0.12086,0.11365 0.21087,0.008 0.32902,-0.0363 0.26255,-0.0988 z m 0.90327,-0.35669 c -0.0525,-0.25869 -0.13011,-0.47035 -0.1723,-0.47035 -0.0422,0 -0.0767,0.21166 -0.0767,0.47035 0,0.25869 0.0775,0.47036 0.17229,0.47036 0.0948,0 0.12927,-0.21167 0.0767,-0.47036 z m -65.210359,0.14944 c -0.247543,-0.0449 -0.652613,-0.0449 -0.900157,0 -0.247543,0.0449 -0.04501,0.0816 0.450079,0.0816 0.495087,0 0.697622,-0.0367 0.450078,-0.0816 z m 59.712779,0.003 c -0.19125,-0.0471 -0.55132,-0.0488 -0.80015,-0.003 -0.24881,0.045 -0.0923,0.0835 0.34774,0.0856 0.44006,0.002 0.64366,-0.0347 0.45241,-0.0818 z m -57.508587,-0.18228 c -0.135429,-0.0515 -0.405477,-0.0547 -0.600104,-0.007 -0.194627,0.0477 -0.08383,0.0899 0.246237,0.0937 0.330057,0.003 0.489298,-0.0352 0.353867,-0.0867 z m 55.009627,0 c -0.13543,-0.0515 -0.40548,-0.0547 -0.60011,-0.007 -0.19463,0.0477 -0.0838,0.0899 0.24624,0.0937 0.33006,0.003 0.4893,-0.0352 0.35387,-0.0867 z m -53.117268,-0.17778 c -0.06647,-0.0625 -0.239001,-0.0692 -0.383401,-0.0148 -0.159575,0.0601 -0.112174,0.10465 0.120855,0.11368 0.21087,0.008 0.329016,-0.0363 0.262546,-0.0988 z m 51.008918,0 c -0.0664,-0.0625 -0.239,-0.0692 -0.38339,-0.0148 -0.15958,0.0601 -0.11218,0.10465 0.12085,0.11368 0.21087,0.008 0.32901,-0.0363 0.26254,-0.0988 z m -49.100611,-0.19788 c -0.13543,-0.0516 -0.405477,-0.0547 -0.600105,-0.007 -0.194627,0.0477 -0.08383,0.0899 0.246237,0.0937 0.330057,0.003 0.489298,-0.0352 0.353868,-0.0867 z m 47.408291,0 c -0.13544,-0.0516 -0.40547,-0.0547 -0.6001,-0.007 -0.19464,0.0477 -0.0838,0.0899 0.24624,0.0937 0.33005,0.003 0.48929,-0.0352 0.35386,-0.0867 z m -59.527595,-0.47628 c -0.06385,-0.15009 -0.111257,-0.10551 -0.120855,0.11365 -0.0087,0.19834 0.03859,0.30946 0.105062,0.24695 0.06647,-0.0625 0.07358,-0.2248 0.01579,-0.3606 z m 13.915812,0.28695 c -0.137525,-0.0522 -0.362564,-0.0522 -0.500087,0 -0.137525,0.0522 -0.02501,0.0949 0.250043,0.0949 0.275049,0 0.387568,-0.0427 0.250044,-0.0949 z m 43.607623,0 c -0.13752,-0.0522 -0.36256,-0.0522 -0.50008,0 -0.13752,0.0522 -0.025,0.0949 0.25005,0.0949 0.27505,0 0.38756,-0.0427 0.25003,-0.0949 z m -41.603466,-0.18695 c -0.13543,-0.0516 -0.405478,-0.0547 -0.600105,-0.007 -0.194627,0.0477 -0.08382,0.0899 0.246237,0.0937 0.330058,0.004 0.489298,-0.0352 0.353868,-0.0867 z m 39.806956,0 c -0.13543,-0.0516 -0.40547,-0.0547 -0.60009,-0.007 -0.19463,0.0477 -0.0838,0.0899 0.24622,0.0937 0.33007,0.004 0.4893,-0.0352 0.35387,-0.0867 z m -37.806606,-0.18814 c -0.13543,-0.0515 -0.405478,-0.0547 -0.600105,-0.007 -0.194627,0.0477 -0.08383,0.0899 0.246237,0.0937 0.330057,0.004 0.489298,-0.0352 0.353868,-0.0867 z m 11.093972,0.01 c -0.06647,-0.0625 -0.239004,-0.0692 -0.383404,-0.0149 -0.159575,0.0601 -0.112175,0.10463 0.120856,0.11366 0.21087,0.008 0.329018,-0.0363 0.262548,-0.0988 z m 24.512244,-0.01 c -0.13542,-0.0515 -0.40547,-0.0547 -0.6001,-0.007 -0.19463,0.0477 -0.0838,0.0899 0.24625,0.0937 0.33005,0.004 0.4893,-0.0352 0.35385,-0.0867 z m -33.005761,-0.18814 c -0.13543,-0.0515 -0.405477,-0.0547 -0.600105,-0.007 -0.194628,0.0477 -0.08383,0.0899 0.246237,0.0937 0.330058,0.003 0.489299,-0.0352 0.353868,-0.0867 z m 1.196404,-8.7e-4 c -0.137524,-0.0522 -0.362564,-0.0522 -0.500087,0 -0.137525,0.0522 -0.025,0.0949 0.250043,0.0949 0.275048,0 0.387567,-0.0427 0.250044,-0.0949 z m 5.600979,0 c -0.137523,-0.0522 -0.362563,-0.0522 -0.500087,0 -0.137523,0.0522 -0.025,0.0949 0.250044,0.0949 0.275048,0 0.387567,-0.0427 0.250043,-0.0949 z m 17.002968,0 c -0.13752,-0.0522 -0.36255,-0.0522 -0.50008,0 -0.13752,0.0522 -0.025,0.0949 0.25004,0.0949 0.27504,0 0.38757,-0.0427 0.25004,-0.0949 z m 26.69129,-0.28696 c -0.0639,-0.15009 -0.11125,-0.1055 -0.12085,0.11367 -0.009,0.19834 0.0387,0.30945 0.10506,0.24694 0.0664,-0.0625 0.0736,-0.2248 0.0158,-0.36061 z m 1.39608,-0.38805 c -0.0555,-0.12934 -0.1009,-0.0235 -0.1009,0.23519 0,0.2587 0.0454,0.36452 0.1009,0.23517 0.0554,-0.12934 0.0554,-0.34101 0,-0.47036 z m 0.60428,-2.05777 c -0.0639,-0.15008 -0.11126,-0.10551 -0.12086,0.11367 -0.009,0.19833 0.0387,0.30945 0.10507,0.24693 0.0665,-0.0625 0.0736,-0.22479 0.0158,-0.3606 z m -2.60046,-0.56442 c -0.0639,-0.15008 -0.11125,-0.10551 -0.12085,0.11367 -0.009,0.19833 0.0387,0.30944 0.10505,0.24693 0.0665,-0.0625 0.0736,-0.22479 0.0158,-0.3606 z m -0.20003,-1.12884 c -0.0639,-0.15008 -0.11126,-0.10551 -0.12086,0.11366 -0.009,0.19834 0.0386,0.30946 0.10507,0.24694 0.0665,-0.0625 0.0736,-0.22479 0.0158,-0.3606 z m 1.20021,-1.12884 c -0.0639,-0.15009 -0.11127,-0.10551 -0.12085,0.11367 -0.009,0.19832 0.0385,0.30945 0.10505,0.24693 0.0665,-0.0625 0.0736,-0.22479 0.0158,-0.3606 z m -1.60029,-0.9407 c -0.0639,-0.15009 -0.11124,-0.10551 -0.12085,0.11367 -0.009,0.19833 0.0387,0.30944 0.10506,0.24692 0.0665,-0.0625 0.0736,-0.22479 0.0158,-0.36059 z m 0.59595,-0.57618 c -0.0555,-0.12935 -0.1009,-0.0235 -0.1009,0.23517 0,0.25869 0.0454,0.36452 0.1009,0.23518 0.0554,-0.12935 0.0554,-0.34101 0,-0.47035 z m -69.007911,0.0117 c -0.06385,-0.15009 -0.111256,-0.1055 -0.120854,0.11367 -0.0087,0.19833 0.0386,0.30944 0.105063,0.24693 0.06647,-0.0625 0.07358,-0.22479 0.01579,-0.3606 z m 70.612351,-0.37628 c -0.0639,-0.15009 -0.11126,-0.10551 -0.12085,0.11366 -0.009,0.19834 0.0385,0.30946 0.10506,0.24694 0.0665,-0.0625 0.0736,-0.22478 0.0158,-0.3606 z m -1.79833,-0.66667 c -0.0507,-0.18305 -0.0956,-0.0788 -0.0996,0.23159 -0.004,0.31043 0.0374,0.46021 0.0922,0.33283 0.0548,-0.12737 0.0581,-0.38137 0.007,-0.56442 z m -68.618153,-0.0976 c -0.0555,-0.12935 -0.100894,-0.0235 -0.100894,0.23517 0,0.25869 0.0454,0.36452 0.100894,0.23518 0.0555,-0.12935 0.0555,-0.341 0,-0.47035 z m 67.816033,-0.36452 c -0.0639,-0.15009 -0.11127,-0.10551 -0.12086,0.11366 -0.009,0.19835 0.0387,0.30946 0.10506,0.24694 0.0665,-0.0625 0.0736,-0.22479 0.0158,-0.3606 z m 0.59593,-0.57619 c -0.0555,-0.12934 -0.10089,-0.0235 -0.10089,0.23518 0,0.2587 0.0454,0.36452 0.10089,0.23518 0.0554,-0.12935 0.0554,-0.341 0,-0.47036 z m -68.20776,0.0117 c -0.06385,-0.15009 -0.111256,-0.10551 -0.120855,0.11367 -0.0087,0.19834 0.0386,0.30945 0.105061,0.24694 0.06647,-0.0625 0.07358,-0.22479 0.01579,-0.36061 z m 68.00773,-0.95245 c -0.0554,-0.12935 -0.10089,-0.0235 -0.10089,0.23517 0,0.2587 0.0454,0.36452 0.10089,0.23517 0.0554,-0.12934 0.0554,-0.341 0,-0.47034 z m -0.19587,-0.92895 c -0.0639,-0.15009 -0.11125,-0.10551 -0.12085,0.11367 -0.009,0.19834 0.0386,0.30945 0.10506,0.24694 0.0665,-0.0625 0.0736,-0.22479 0.0158,-0.36061 z m -67.211755,-1.31687 c -0.06385,-0.15007 -0.111257,-0.1055 -0.120855,0.11368 -0.0087,0.19833 0.0386,0.30944 0.105062,0.24693 0.06647,-0.0625 0.07358,-0.22479 0.01579,-0.36061 z m -0.404238,-1.51687 c -0.0555,-0.12934 -0.100894,-0.0235 -0.100894,0.23518 0,0.25868 0.0454,0.36452 0.100894,0.23517 0.0555,-0.12935 0.0555,-0.341 0,-0.47035 z m 66.415783,0.0117 c -0.0639,-0.15009 -0.11126,-0.10551 -0.12085,0.11367 -0.009,0.19833 0.0386,0.30944 0.10506,0.24693 0.0665,-0.0625 0.0736,-0.2248 0.0158,-0.3606 z m -65.611476,-0.56443 c -0.06385,-0.15008 -0.111255,-0.1055 -0.120854,0.11367 -0.0087,0.19834 0.0386,0.30945 0.105062,0.24695 0.06647,-0.0625 0.07358,-0.2248 0.01579,-0.36062 z m -2.200384,-0.37627 c -0.06385,-0.15009 -0.111257,-0.10551 -0.120855,0.11366 -0.0087,0.19833 0.0386,0.30946 0.105062,0.24694 0.06647,-0.0625 0.07358,-0.22479 0.01579,-0.3606 z m 1.60028,0 c -0.06385,-0.15009 -0.111257,-0.10551 -0.120855,0.11366 -0.0087,0.19833 0.03859,0.30946 0.105062,0.24694 0.06647,-0.0625 0.07358,-0.22479 0.01579,-0.3606 z m 67.21176,-0.37661 c -0.0639,-0.15008 -0.11127,-0.10551 -0.12086,0.11367 -0.009,0.19833 0.0387,0.30945 0.10506,0.24693 0.0665,-0.0625 0.0736,-0.22478 0.0158,-0.3606 z m -68.612005,-0.56442 c -0.06385,-0.15008 -0.111257,-0.1055 -0.120854,0.11367 -0.0087,0.19833 0.0386,0.30945 0.105061,0.24693 0.06647,-0.0625 0.07358,-0.22478 0.01579,-0.3606 z m 1.800314,-1.12884 c -0.06385,-0.15008 -0.111256,-0.10551 -0.120853,0.11367 -0.0087,0.19833 0.03859,0.30945 0.105061,0.24693 0.06647,-0.0625 0.07358,-0.22479 0.01579,-0.3606 z m 66.411611,-0.18814 c -0.0639,-0.15009 -0.11125,-0.1055 -0.12085,0.11367 -0.009,0.19833 0.0386,0.30945 0.10507,0.24693 0.0664,-0.0625 0.0736,-0.22478 0.0158,-0.3606 z m -66.211576,-0.75256 c -0.06385,-0.15009 -0.111255,-0.1055 -0.120854,0.11367 -0.0087,0.19833 0.0386,0.30945 0.105062,0.24693 0.06647,-0.0625 0.07358,-0.22479 0.01579,-0.3606 z m 64.811346,-0.18814 c -0.0639,-0.15008 -0.11126,-0.10551 -0.12087,0.11367 -0.009,0.19833 0.0387,0.30945 0.10507,0.24692 0.0665,-0.0625 0.0736,-0.22478 0.0158,-0.36059 z m -0.80015,-4.13909 c -0.0639,-0.15009 -0.11124,-0.1055 -0.12086,0.11367 -0.009,0.19834 0.0387,0.30946 0.10507,0.24694 0.0664,-0.0625 0.0736,-0.22479 0.0158,-0.36061 z m -0.20003,-1.12884 c -0.0639,-0.15008 -0.11126,-0.1055 -0.12085,0.11367 -0.009,0.19834 0.0385,0.30945 0.10505,0.24693 0.0664,-0.0625 0.0736,-0.22478 0.0158,-0.3606 z m -63.211061,-0.56491 c -0.06385,-0.15009 -0.111256,-0.10551 -0.120854,0.11366 -0.0087,0.19834 0.0386,0.30946 0.105062,0.24694 0.06647,-0.0625 0.07358,-0.22479 0.01579,-0.3606 z m 1.20021,0 c -0.06385,-0.15009 -0.111254,-0.10551 -0.120854,0.11366 -0.0087,0.19834 0.0386,0.30946 0.105062,0.24694 0.06647,-0.0625 0.07358,-0.22479 0.01579,-0.3606 z m 62.810991,-0.94071 c -0.0639,-0.15008 -0.11126,-0.1055 -0.12085,0.11368 -0.009,0.19832 0.0386,0.30944 0.10505,0.24693 0.0664,-0.0625 0.0736,-0.22479 0.0158,-0.36061 z m -63.411096,-1.8814 c -0.06385,-0.15009 -0.111255,-0.1055 -0.120853,0.11367 -0.0087,0.19833 0.03859,0.30945 0.105061,0.24694 0.06647,-0.0625 0.07358,-0.22479 0.01579,-0.36061 z m 61.810816,-0.75256 c -0.0639,-0.15008 -0.11126,-0.1055 -0.12086,0.11367 -0.009,0.19833 0.0387,0.30946 0.10506,0.24694 0.0664,-0.0625 0.0736,-0.2248 0.0158,-0.36061 z m -61.347357,-0.89043 c 0,-0.083 -0.245028,-0.1069 -0.544506,-0.053 -0.483631,0.087 -0.500403,0.11297 -0.150025,0.23258 0.417359,0.14249 0.694531,0.0708 0.694531,-0.17953 z m 3.105512,-2.66149 1.59531,-0.1066 -1.618497,-0.0345 -1.618497,-0.0345 -0.544365,0.9407 c -0.439704,0.75984 -0.484274,0.9407 -0.231826,0.9407 0.171896,0 0.32408,0.14816 0.338186,0.32925 0.01411,0.18109 0.128862,-0.17873 0.255012,-0.79959 l 0.229364,-1.12884 z m 28.020765,1.56861 c -0.20335,-0.19124 -0.37112,0.0967 -0.20428,0.35058 0.12603,0.19179 0.17315,0.19194 0.24089,6.5e-4 0.0463,-0.13072 0.0299,-0.28882 -0.0366,-0.35134 z m 30.08713,-0.7028 -0.58083,-0.94735 -1.66127,-0.0129 -1.66128,-0.0129 1.64446,0.0675 1.64446,0.0675 0.13104,0.92911 c 0.11671,0.82752 0.18206,0.92514 0.59766,0.89279 l 0.4666,-0.0363 z m -31.60822,-0.5477 c 0,-0.039 -0.15753,-0.18724 -0.35006,-0.32925 -0.31728,-0.23402 -0.32435,-0.22737 -0.0755,0.071 0.26131,0.3134 0.42558,0.41306 0.42558,0.25821 z m 3.22606,-0.25822 c 0.24883,-0.2984 0.24175,-0.30505 -0.0755,-0.0711 -0.33321,0.24579 -0.43917,0.40029 -0.27453,0.40029 0.0415,0 0.19906,-0.14816 0.35006,-0.32925 z m -25.776206,-0.35858 c -0.135431,-0.0516 -0.405477,-0.0547 -0.600105,-0.007 -0.194628,0.0477 -0.08383,0.0899 0.246236,0.0937 0.330058,0.003 0.489299,-0.0352 0.353869,-0.0867 z m 48.608506,0 c -0.13544,-0.0516 -0.40549,-0.0547 -0.60011,-0.007 -0.19463,0.0477 -0.0838,0.0899 0.24625,0.0937 0.33005,0.003 0.48929,-0.0352 0.35386,-0.0867 z m -46.916183,-0.1784 c -0.06647,-0.0625 -0.239,-0.0692 -0.3834,-0.0148 -0.159575,0.0601 -0.112176,0.10464 0.120855,0.11367 0.21087,0.008 0.329015,-0.0363 0.262545,-0.0988 z m 45.007873,0 c -0.0664,-0.0625 -0.239,-0.0692 -0.3834,-0.0148 -0.15958,0.0601 -0.11218,0.10464 0.12086,0.11367 0.21086,0.008 0.32901,-0.0363 0.26254,-0.0988 z m -43.407593,-0.18815 c -0.06647,-0.0625 -0.238999,-0.0692 -0.3834,-0.0148 -0.159574,0.0601 -0.112175,0.10465 0.120854,0.11368 0.210871,0.008 0.329016,-0.0363 0.262546,-0.0988 z m 41.807313,0 c -0.0664,-0.0625 -0.239,-0.0692 -0.3834,-0.0148 -0.15958,0.0601 -0.11218,0.10465 0.12085,0.11368 0.21087,0.008 0.32902,-0.0363 0.26255,-0.0988 z m -40.407068,-0.18813 c -0.06647,-0.0625 -0.239,-0.0692 -0.3834,-0.0148 -0.159575,0.0601 -0.112175,0.10464 0.120854,0.11366 0.21087,0.008 0.329016,-0.0363 0.262546,-0.0988 z m 39.006828,0 c -0.0664,-0.0625 -0.23901,-0.0692 -0.3834,-0.0148 -0.15958,0.0601 -0.11219,0.10464 0.12085,0.11366 0.21086,0.008 0.32901,-0.0363 0.26255,-0.0988 z m -37.302363,-0.19908 c -0.137523,-0.0522 -0.362563,-0.0522 -0.500088,0 -0.137523,0.0522 -0.02501,0.0949 0.250044,0.0949 0.275049,0 0.387568,-0.0427 0.250044,-0.0949 z m 35.606223,0 c -0.13752,-0.0522 -0.36256,-0.0522 -0.50009,0 -0.13752,0.0522 -0.025,0.0949 0.25005,0.0949 0.27505,0 0.38757,-0.0427 0.25004,-0.0949 z m -34.205978,-0.18813 c -0.137523,-0.0522 -0.362563,-0.0522 -0.500087,0 -0.137524,0.0522 -0.02501,0.0949 0.250044,0.0949 0.275047,0 0.387567,-0.0427 0.250043,-0.0949 z m 32.805738,0 c -0.13752,-0.0522 -0.36256,-0.0522 -0.50009,0 -0.13752,0.0522 -0.025,0.0949 0.25005,0.0949 0.27504,0 0.38757,-0.0427 0.25004,-0.0949 z m -31.005422,-0.18815 c -0.137525,-0.0522 -0.362564,-0.0522 -0.500088,0 -0.137524,0.0522 -0.025,0.0949 0.250043,0.0949 0.275048,0 0.387568,-0.0427 0.250045,-0.0949 z m 29.300952,0.011 c -0.0664,-0.0625 -0.239,-0.0692 -0.38339,-0.0149 -0.15959,0.0601 -0.11219,0.10465 0.12085,0.11367 0.21087,0.008 0.32902,-0.0363 0.26254,-0.0988 z m -27.096761,-0.19788 c -0.135429,-0.0516 -0.405477,-0.0547 -0.600104,-0.007 -0.194628,0.0477 -0.08382,0.0899 0.246236,0.0937 0.330058,0.003 0.489299,-0.0352 0.353868,-0.0867 z m 5.801016,0 c -0.135434,-0.0516 -0.405477,-0.0547 -0.600105,-0.007 -0.194627,0.0477 -0.08383,0.0899 0.246236,0.0937 0.33006,0.003 0.489301,-0.0352 0.353869,-0.0867 z m 13.198495,-8.7e-4 c -0.13752,-0.0522 -0.36256,-0.0522 -0.50008,0 -0.13753,0.0522 -0.025,0.0949 0.25004,0.0949 0.27504,0 0.38756,-0.0427 0.25004,-0.0949 z m 6.20489,8.7e-4 c -0.13542,-0.0516 -0.40547,-0.0547 -0.6001,-0.007 -0.19463,0.0477 -0.0838,0.0899 0.24624,0.0937 0.33006,0.003 0.4893,-0.0352 0.35386,-0.0867 z"
       id="path1" /></g></svg>
