<?xml version="1.0" encoding="UTF-8" standalone="no"?>
<!-- Created with Inkscape (http://www.inkscape.org/) -->

<svg
   width="210mm"
   height="297mm"
   viewBox="0 0 210 297"
   version="1.1"
   id="svg1"
   xml:space="preserve"
   xmlns="http://www.w3.org/2000/svg"
   xmlns:svg="http://www.w3.org/2000/svg"><defs
     id="defs1" /><g
     id="layer1"><g
       id="layer1-4"
       transform="matrix(1,0,0,1.0295659,4.9999999e-7,-10.603227)"
       style="fill:#000000;fill-opacity:1"><g
         id="text1"
         style="font-weight:900;font-size:50.8px;font-family:Pricedown;-inkscape-font-specification:'Pricedown, Heavy';fill:#000000;fill-opacity:1;stroke-width:0.264583"
         aria-label="Tu&#10;Libreria"
         transform="matrix(1.1185838,0,0,1.6268228,-11.219545,-122.88791)"><path
           style="fill:#000000;fill-opacity:1;stroke-width:0.41312"
           d="m 105.49921,137.03235 c 6.57067,0 9.90364,-1.71779 9.90364,-5.21944 V 94.814324 H 95.5956 v 31.580936 c 0,0.0661 -0.09523,0.13213 -0.190456,0.13213 h -4.475672 c -0.09523,0 -0.190454,-0.0661 -0.190454,-0.13213 V 94.814324 H 70.931786 v 36.998586 c 0,3.50165 3.332948,5.21944 9.903616,5.21944 z"
           id="path5" /><path
           style="fill:#000000;fill-opacity:1;stroke-width:0.403327"
           d="m 60.20503,135.48782 c 5.532975,0 8.339555,-1.94439 8.339555,-5.90795 V 105.64893 H 51.945661 v 17.79863 c 0,0.0747 -0.08018,0.14958 -0.160375,0.14958 h -3.849025 c -0.08018,0 -0.160376,-0.0748 -0.160376,-0.14958 v -20.86478 h 20.7687 v -11.8159 h -20.7687 V 87.700729 H 31.096773 v 3.066151 h -4.08959 v 11.8159 h 4.08959 v 26.99709 c 0,3.96356 2.80658,5.90795 8.339555,5.90795 z"
           id="path3" /><path
           d="m 43.497605,194.2092 v -10.45655 h -13.208 v -44.65408 h -10.5664 v 55.11063 z m 0,-13.08713 v -42.0235 h -10.5664 v 42.0235 z m 21.082023,0 c 3.5052,0 5.2832,-1.70987 5.2832,-5.1954 v -31.50118 c 0,-3.55128 -1.778,-5.32692 -5.2832,-5.32692 h -7.874 V 128.57626 H 46.139229 v 52.54581 z m -5.2832,-10.58808 c 0,0.0658 -0.0508,0.13153 -0.1016,0.13153 h -2.4892 v -21.04464 h 2.4892 c 0.0508,0 0.1016,0.0658 0.1016,0.13153 z M 122.39001,194.2092 V 183.75265 H 96.278813 c -0.0508,0 -0.1016,-0.0657 -0.1016,-0.13152 v -20.05818 c 0,-2.03869 -0.8636,-3.15669 -2.6416,-3.48551 1.7272,-0.26306 2.5908,-1.38106 2.5908,-3.41976 v -12.23219 c 0,-3.55128 -1.7272,-5.32692 -5.2324,-5.32692 h -18.4404 v 42.0235 h 10.5664 v -16.83571 h 2.4892 c 0.0508,0 0.1016,0.0657 0.1016,0.13153 v 24.59591 c 0,3.48552 1.778,5.1954 5.2832,5.1954 z M 85.610813,155.80275 c 0,0.0657 -0.0508,0.13152 -0.1016,0.13152 h -2.4892 v -6.31339 h 2.4892 c 0.0508,0 0.1016,0.0658 0.1016,0.13153 z m 26.212797,-0.1973 h -2.5908 v -5.85304 c 0,-0.0657 0.0508,-0.13153 0.1016,-0.13153 h 2.3876 c 0.0508,0 0.1016,0.0658 0.1016,0.13153 z m 5.2832,25.51662 c 3.5052,0 5.2832,-1.70987 5.2832,-5.1954 v -7.89173 h -10.5664 v 2.49905 c 0,0.0658 -0.0508,0.13153 -0.1016,0.13153 h -2.3876 c -0.0508,0 -0.1016,-0.0657 -0.1016,-0.13153 v -5.12963 h 13.1572 v -20.97887 c 0,-3.55128 -1.778,-5.32692 -5.2832,-5.32692 h -13.1572 c -3.5052,0 -5.283198,1.77564 -5.283198,5.32692 v 31.50118 c 0,3.48553 1.777998,5.1954 5.283198,5.1954 z m 44.75485,13.08713 v -10.45655 h -13.1064 c -0.0508,0 -0.1016,-0.0657 -0.1016,-0.13152 v -20.05818 c 0,-2.03869 -0.8636,-3.15669 -2.6416,-3.48551 1.7272,-0.26306 2.5908,-1.38106 2.5908,-3.41976 v -12.23219 c 0,-3.55128 -1.7272,-5.32692 -5.2324,-5.32692 h -18.4404 v 42.0235 h 10.5664 v -16.83571 h 2.4892 c 0.0508,0 0.1016,0.0657 0.1016,0.13153 v 24.59591 c 0,3.48552 1.778,5.1954 5.2832,5.1954 z m -23.7744,-38.40645 c 0,0.0657 -0.0508,0.13152 -0.1016,0.13152 h -2.4892 v -6.31339 h 2.4892 c 0.0508,0 0.1016,0.0658 0.1016,0.13153 z m 23.7236,25.31932 v -42.0235 h -10.5664 v 42.0235 z m 15.69719,-10.45655 h -2.4892 c -0.0508,0 -0.1016,-0.0657 -0.1016,-0.13153 v -6.31338 c 0,-0.0657 0.0508,-0.13153 0.1016,-0.13153 h 2.4892 z m 10.5664,10.45655 v -36.69658 c 0,-3.55128 -1.778,-5.32692 -5.2832,-5.32692 h -13.1572 c -3.5052,0 -5.2832,1.77564 -5.2832,5.32692 v 7.76021 h 10.5664 v -2.43329 c 0,-0.0657 0.0508,-0.13153 0.1016,-0.13153 h 2.3876 c 0.0508,0 0.1016,0.0658 0.1016,0.13153 v 5.12964 h -7.874 c -3.5052,0 -5.2832,1.70988 -5.2832,5.19539 v 15.84923 c 0,3.48553 1.778,5.1954 5.2832,5.1954 z"
           id="path4"
           style="fill:#000000;fill-opacity:1;stroke-width:0.30104" /></g><path
         d="M 27.151042,247.07325 V 224.22873 H 44.136268 V 211.17471 H 27.151042 v -3.01873 c 0,-0.0816 0.09436,-0.16318 0.188724,-0.16318 H 44.324993 V 194.93878 H 17.337355 c -6.511003,0 -9.813686,2.28445 -9.813686,6.6086 v 45.52587 z m 45.38833,-32.55344 H 67.72689 v -6.36383 c 0,-0.0816 0.09436,-0.16318 0.188726,-0.16318 h 4.43503 c 0.09436,0 0.188726,0.0815 0.188726,0.16318 z m 68.318348,48.78938 V 250.33676 H 92.355468 c -0.09436,0 -0.188724,-0.0816 -0.188724,-0.16317 v -48.62621 c 0,-4.40573 -3.302683,-6.6086 -9.813686,-6.6086 H 57.913204 c -6.511003,0 -9.813686,2.20287 -9.813686,6.6086 v 45.52587 H 67.72689 v -19.49943 h 4.812482 v 29.28995 c 0,4.32414 3.302683,6.44542 9.813686,6.44542 z m -9.81368,-16.23594 c 6.511,0 9.81368,-2.12127 9.81368,-6.44542 V 221.7811 h -19.62737 v 12.15655 c 0,0.0815 -0.0943,0.16318 -0.18873,0.16318 h -4.43503 c -0.0943,0 -0.18871,-0.0816 -0.18871,-0.16318 v -25.78167 c 0,-0.0816 0.0943,-0.16318 0.18871,-0.16318 h 4.43503 c 0.0943,0 0.18873,0.0815 0.18873,0.16318 v 8.81145 h 19.62737 v -15.42005 c 0,-4.40573 -3.30268,-6.6086 -9.81368,-6.6086 h -24.43985 c -6.51101,0 -9.813689,2.20287 -9.813689,6.6086 v 39.08045 c 0,4.32415 3.302679,6.44542 9.813689,6.44542 z m 34.15914,0 v -52.13447 h -19.62737 v 52.13447 z m 37.27315,0 v -12.97242 h -12.73892 v -39.16205 h -19.62737 v 52.13447 z"
         id="text2"
         style="font-weight:900;font-size:87.7428px;font-family:Pricedown;-inkscape-font-specification:'Pricedown, Heavy';fill:#000000;fill-opacity:1;stroke-width:0.456993"
         aria-label="FACIL" /></g></g></svg>
